<?xml version="1.0" standalone="no"?>
<!DOCTYPE svg PUBLIC "-//W3C//DTD SVG 20010904//EN"
 "http://www.w3.org/TR/2001/REC-SVG-20010904/DTD/svg10.dtd">
<svg version="1.0" xmlns="http://www.w3.org/2000/svg"
 width="260.000000pt" height="260.000000pt" viewBox="0 0 260.000000 260.000000"
 preserveAspectRatio="xMidYMid meet">
<metadata>
Created by potrace 1.14, written by Peter Selinger 2001-2017
</metadata>
<g transform="translate(0.000000,260.000000) scale(0.100000,-0.100000)"
fill="#000000" stroke="none">
<path d="M0 1300 l0 -1300 1300 0 1300 0 0 1300 0 1300 -1300 0 -1300 0 0
-1300z m1317 1124 c9 -24 -10 -49 -37 -49 -31 0 -48 28 -31 49 17 21 60 21 68
0z m593 -894 l0 -780 -70 0 -70 0 26 -51 c25 -51 26 -51 41 -29 12 17 23 21
52 18 29 -4 39 0 54 19 20 25 47 29 78 13 15 -8 19 -7 19 4 0 22 37 39 74 34
l31 -3 -3 607 -2 608 22 -4 c13 -3 25 -5 28 -5 3 -1 -2 -6 -10 -11 -13 -8 -12
-10 3 -10 10 0 15 -4 12 -10 -3 -5 -2 -10 4 -10 6 0 14 -12 17 -26 4 -15 12
-23 20 -20 16 6 35 -16 38 -48 2 -13 10 -32 20 -41 9 -9 16 -21 16 -26 0 -6 4
-8 8 -5 4 2 8 -8 7 -22 0 -19 5 -27 16 -26 11 1 15 -5 12 -16 -3 -10 1 -28 7
-40 10 -18 14 -20 22 -9 6 10 7 7 3 -10 -5 -16 -4 -21 4 -17 7 5 8 1 4 -10 -4
-10 0 -20 10 -25 9 -6 13 -17 10 -29 -3 -13 0 -20 8 -20 10 0 14 -14 13 -52
-1 -29 2 -57 7 -63 4 -5 9 -21 11 -35 2 -14 8 -24 13 -23 6 1 10 -65 10 -172
0 -95 -4 -171 -8 -168 -5 3 -4 -4 2 -16 10 -17 9 -21 -5 -21 -12 0 -15 -7 -12
-30 3 -18 0 -30 -7 -30 -6 0 -12 -18 -12 -42 -1 -59 -1 -58 -18 -58 -13 0 -14
-4 -4 -22 9 -18 8 -24 -6 -34 -9 -7 -15 -18 -13 -26 3 -7 -6 -22 -19 -34 -13
-12 -23 -28 -23 -37 0 -9 -4 -19 -10 -22 -5 -3 -10 -13 -10 -21 0 -9 5 -12 12
-8 7 4 8 3 4 -5 -4 -6 -11 -9 -14 -7 -4 2 -12 -7 -19 -20 -6 -14 -7 -24 -1
-24 5 0 6 -5 2 -11 -4 -8 -9 -7 -15 2 -8 11 -12 10 -21 -6 -7 -11 -14 -31 -16
-44 -5 -38 -88 -134 -204 -235 -48 -42 -121 -84 -156 -89 -22 -4 -45 -14 -52
-22 -7 -8 -16 -13 -20 -10 -5 3 -15 -2 -24 -10 -8 -9 -29 -21 -46 -26 -16 -6
-27 -15 -24 -20 3 -5 -3 -6 -12 -2 -12 5 -15 3 -9 -6 6 -10 3 -11 -12 -2 -12
6 -24 6 -29 1 -5 -5 -29 -10 -52 -13 -24 -2 -47 -8 -50 -13 -4 -5 -20 -11 -37
-13 -53 -7 -379 -6 -404 2 -14 3 -30 2 -38 -4 -12 -11 -14 -9 -12 8 1 11 -32
22 -68 22 -18 1 -33 6 -33 11 0 6 -9 10 -20 10 -11 0 -20 -5 -20 -11 0 -8 -4
-9 -13 0 -8 6 -17 8 -20 4 -4 -3 -7 0 -7 9 0 19 -44 40 -67 31 -9 -4 -14 -2
-10 4 10 15 -27 40 -56 37 -15 -1 -27 2 -27 7 0 18 -30 41 -46 35 -23 -9 -37
3 -24 19 9 11 6 16 -14 21 -31 7 -34 33 -11 87 28 67 24 72 -57 76 -40 1 -90
3 -110 4 -21 1 -38 5 -38 8 0 4 -18 26 -40 50 -22 24 -40 50 -40 57 0 7 -6 15
-14 18 -7 3 -19 23 -26 45 -7 21 -17 39 -21 39 -8 0 -19 43 -22 88 -1 15 -6
21 -16 17 -11 -4 -11 -3 -2 9 9 11 9 15 0 18 -6 2 -11 16 -11 32 0 16 -5 25
-12 23 -7 -3 -11 6 -11 22 0 14 -5 25 -10 24 -6 -1 -10 24 -9 62 2 45 -1 62
-9 59 -15 -5 -17 357 -3 368 5 3 11 26 13 49 3 24 8 48 12 54 5 5 8 22 7 38
-1 17 3 27 12 27 11 0 13 10 9 39 -5 39 3 65 19 59 5 -1 13 10 19 27 5 16 18
38 28 48 12 12 17 28 14 42 -2 13 -1 24 2 23 20 -2 31 3 26 12 -4 6 -11 7 -17
4 -7 -4 -8 -2 -4 4 4 6 13 9 21 5 9 -3 15 1 15 11 0 9 8 25 18 36 9 11 16 23
15 25 -4 7 46 55 57 55 5 0 11 8 13 18 3 9 4 -130 4 -310 -1 -213 1 -326 8
-325 6 1 11 -96 13 -271 1 -165 6 -272 12 -272 17 0 37 44 64 140 28 98 43
120 83 120 l23 0 0 643 c0 354 3 647 7 650 3 4 280 7 615 7 l608 0 0 -780z"/>
<path d="M1771 1114 c0 -11 3 -14 6 -6 3 7 2 16 -1 19 -3 4 -6 -2 -5 -13z"/>
<path d="M1548 1113 c7 -3 16 -2 19 1 4 3 -2 6 -13 5 -11 0 -14 -3 -6 -6z"/>
<path d="M346 1085 c-9 -26 -7 -32 5 -12 6 10 9 21 6 23 -2 3 -7 -2 -11 -11z"/>
<path d="M1392 1080 c0 -14 2 -19 5 -12 2 6 2 18 0 25 -3 6 -5 1 -5 -13z"/>
<path d="M1773 1020 c0 -30 2 -43 4 -27 2 15 2 39 0 55 -2 15 -4 2 -4 -28z"/>
<path d="M1442 1040 c0 -14 2 -19 5 -12 2 6 2 18 0 25 -3 6 -5 1 -5 -13z"/>
<path d="M1392 1030 c0 -14 2 -19 5 -12 2 6 2 18 0 25 -3 6 -5 1 -5 -13z"/>
<path d="M1540 1003 c0 -10 4 -14 8 -8 4 6 11 13 16 18 5 4 2 7 -7 7 -10 0
-17 -8 -17 -17z"/>
<path d="M311 994 c0 -11 3 -14 6 -6 3 7 2 16 -1 19 -3 4 -6 -2 -5 -13z"/>
<path d="M1018 973 c6 -2 18 -2 25 0 6 3 1 5 -13 5 -14 0 -19 -2 -12 -5z"/>
<path d="M1173 973 c9 -2 25 -2 35 0 9 3 1 5 -18 5 -19 0 -27 -2 -17 -5z"/>
<path d="M1620 960 c-24 -8 -23 -8 8 -9 20 -1 31 3 27 9 -3 6 -7 10 -8 9 -1
-1 -13 -5 -27 -9z"/>
<path d="M298 905 c-2 -19 0 -41 4 -48 4 -7 8 9 8 36 0 55 -6 62 -12 12z"/>
<path d="M686 668 c-4 -46 -13 -95 -21 -111 l-14 -28 497 4 c434 4 572 9 572
23 0 1 -15 38 -34 81 -18 43 -36 86 -39 96 -6 16 -38 17 -480 17 l-474 0 -7
-82z"/>
<path d="M2197 639 c4 -13 8 -18 11 -10 2 7 -1 18 -6 23 -8 8 -9 4 -5 -13z"/>
</g>
</svg>
